# xmcd CD database file generated by Grip 3.2.0
# 
# Track frame offsets:
#       151
#       19285
#       27505
#       38642
#       49102
#       59252
#       68932
#       83867
#       95584
#       107411
#       117366
#       127426
# 
# Disc length: 1850 seconds
# 
# Revision: 1
# Processed by: cddbd v1.5.1PL2 Copyright (c) Steve Scherf et al.
# Submitted via: Grip 3.2.0
# 
DISCID=a807380c
DTITLE=Xangô da Mangueira - Xangô da Mangueira - Vol.3
DYEAR=1978
DGENRE=Other
TTITLE0=Dá no nego
TTITLE1=A cobra sussurana
TTITLE2=Não xinxa o boi
TTITLE3=Chico Jongueiro
TTITLE4=Louvação aos grandes e aos pequenos
TTITLE5=Perdi minha alegria
TTITLE6=Mineiro ê
TTITLE7=Zé Cansado
TTITLE8=Quem fala alto é gogó
TTITLE9=Mulher da melhor qualidade
TTITLE10=Não adianta falar mal de mim
TTITLE11=Quilombo
EXTD=
EXTT0=
EXTT1=
EXTT2=
EXTT3=
EXTT4=
EXTT5=
EXTT6=
EXTT7=
EXTT8=
EXTT9=
EXTT10=
EXTT11=
PLAYORDER=
